<?xml version="1.0" encoding="utf-8"?>
<!-- Generator: Adobe Illustrator 21.1.0, SVG Export Plug-In . SVG Version: 6.00 Build 0)  -->
<svg version="1.1" id="Layer_1" xmlns="http://www.w3.org/2000/svg" xmlns:xlink="http://www.w3.org/1999/xlink" x="0px" y="0px"
	 viewBox="0 0 100 100" style="enable-background:new 0 0 100 100;" xml:space="preserve">
<style type="text/css">
	.st0{fill:none;}
</style>
<g>
	<g>
		<path class="st0" d="M89.5,33.4H48.9c-4,0-7.2,3.2-7.2,7.2V66c0,4,3.2,7.2,7.2,7.2h29.8c0.5,0,1,0.2,1.3,0.6
			c0.3,0.4,0.5,0.9,0.4,1.4C79.8,78.6,79,82,78,85.4c5.8-4,14.9-10.7,17.2-15c0-0.1,0.1-0.2,0.2-0.3c0.8-1.2,1.3-2.6,1.3-4.1V40.6
			C96.7,36.6,93.4,33.4,89.5,33.4z"/>
		<path class="st0" d="M40.7,34c2-2.5,5-3.9,8.2-3.9h9.3V10.5c0-4-3.2-7.2-7.2-7.2H10.5c-4,0-7.2,3.2-7.2,7.2v25.3
			c0,1.5,0.4,2.9,1.3,4.1c0.1,0.1,0.1,0.2,0.2,0.3c2.3,4.3,11.4,11,17.2,14.9c-1-3.4-1.7-6.8-2.3-10.3c-0.1-0.5,0.1-1,0.4-1.4
			c0.3-0.4,0.8-0.6,1.3-0.6h11.2l6-0.1v-2.5c0-1.1,0.2-2.3,0.6-3.3"/>
		<g>
			<path class="st0" d="M89.5,33.4H48.9c-4,0-7.2,3.2-7.2,7.2V66c0,4,3.2,7.2,7.2,7.2h29.8c0.5,0,1,0.2,1.3,0.6
				c0.3,0.4,0.5,0.9,0.4,1.4C79.8,78.6,79,82,78,85.4c5.8-4,14.9-10.7,17.2-15c0-0.1,0.1-0.2,0.2-0.3c0.8-1.2,1.3-2.6,1.3-4.1V40.6
				C96.7,36.6,93.4,33.4,89.5,33.4z"/>
			<path class="st0" d="M40.7,34c2-2.5,5-3.9,8.2-3.9h9.3V10.5c0-4-3.2-7.2-7.2-7.2H10.5c-4,0-7.2,3.2-7.2,7.2v25.3
				c0,1.5,0.4,2.9,1.3,4.1c0.1,0.1,0.1,0.2,0.2,0.3c2.3,4.3,11.4,11,17.2,14.9c-1-3.4-1.7-6.8-2.3-10.3c-0.1-0.5,0.1-1,0.4-1.4
				c0.3-0.4,0.8-0.6,1.3-0.6h11.2l6-0.1v-2.5c0-1.1,0.2-2.3,0.6-3.3l-0.7,1.4"/>
			<path d="M89.5,30.1H61.6V10.5C61.6,4.7,56.9,0,51.1,0H10.5C4.7,0,0,4.7,0,10.5v25.3C0,38,0.6,40,1.8,41.8
				c3.9,7.5,22.2,18.8,22.4,19c0.3,0.2,0.6,0.2,0.9,0.3c0.4,0,0.8-0.1,1.1-0.4c0.5-0.5,0.7-1.2,0.5-1.9c-1.5-4-2.6-8.1-3.3-12.3
				h15.1v19.5c0,5.8,4.7,10.5,10.5,10.5h27.8c-0.8,4.2-1.9,8.3-3.3,12.3c-0.3,0.7-0.1,1.4,0.5,1.9c0.3,0.3,0.7,0.4,1.1,0.4
				c0.3,0,0.6-0.1,0.9-0.3c0.2-0.1,18.6-11.4,22.4-19c1.2-1.7,1.8-3.8,1.8-5.9V40.6C100,34.8,95.3,30.1,89.5,30.1z M40.7,34
				c-1.1,1.2-1.8,3.2-1.8,3.2c-0.4,1.1-0.6,2.2-0.6,3.3V43l-6,0.1H21.3c-0.5,0-1,0.2-1.3,0.6c-0.3,0.4-0.5,0.9-0.4,1.4
				c0.6,3.5,1.3,6.9,2.3,10.3C16.2,51.3,7.1,44.6,4.8,40.3c-0.1-0.1-0.1-0.2-0.2-0.3c-0.8-1.2-1.3-2.6-1.3-4.1V10.5
				c0-4,3.2-7.2,7.2-7.2h40.5c4,0,7.2,3.2,7.2,7.2v19.5h-9.3C45.8,30.1,42.7,31.5,40.7,34z M96.7,65.9c0,1.5-0.4,2.9-1.3,4.1
				c-0.1,0.1-0.1,0.2-0.2,0.3c-2.3,4.3-11.4,11.1-17.2,15c1-3.4,1.7-6.8,2.3-10.3c0.1-0.5-0.1-1-0.4-1.4c-0.3-0.4-0.8-0.6-1.3-0.6
				H48.9c-4,0-7.2-3.2-7.2-7.2V40.6c0-4,3.2-7.2,7.2-7.2h40.5c4,0,7.2,3.2,7.2,7.2V65.9z"/>
		</g>
	</g>
	<g>
		<path d="M80.9,65.4C80.9,65.4,80.9,65.4,80.9,65.4L70.8,40.2c-0.1-0.1-0.1-0.3-0.3-0.4c0,0,0-0.1-0.1-0.2c-0.1,0-0.1-0.1-0.2-0.1
			c-0.1-0.1-0.2-0.2-0.4-0.2c-0.1,0-0.2,0-0.3,0c-0.1,0-0.2,0-0.4,0c-0.1,0-0.3,0-0.4,0.1h-0.2c-0.2,0.1-0.3,0.2-0.4,0.3l-0.1,0.1
			L68,40c-0.1,0.1-0.2,0.2-0.2,0.4l-10,25.1c-0.3,0.9,0.1,1.8,0.9,2.2c0,0,0,0,0,0c0.2,0.1,0.4,0.1,0.6,0.1c0.7,0,1.3-0.4,1.6-1.1
			l2.9-7.3h11.1l2.9,7.3c0.3,0.6,0.9,1.1,1.6,1.1c0.2,0,0.4,0,0.6-0.1C80.8,67.2,81.2,66.2,80.9,65.4z M65,55.9l4.2-10.5l4.2,10.5
			H65z"/>
		<path d="M41.5,23c0.1-0.3,0.2-0.6,0.3-0.9c0.1-0.4,0.1-0.8,0.1-1.2c0-2-0.9-3.4-2.6-4.2c0.7-0.7,1.1-1.7,1.1-2.8
			c0-0.6-0.1-1.2-0.3-1.8c-0.2-0.6-0.5-1.1-1-1.5c-0.5-0.4-1-0.8-1.7-1.1c-0.7-0.3-1.5-0.4-2.5-0.4H24.6c-0.5,0-0.9,0.1-1.2,0.3
			c-0.3,0.2-0.5,0.7-0.5,1.3c0,0.3,0,0.6,0.1,0.8c0.1,0.2,0.2,0.4,0.3,0.6l0.1,0.1h11.3c0.7,0,1.2,0.2,1.6,0.5
			c0.4,0.3,0.5,0.8,0.5,1.3c0,0.6-0.2,1-0.5,1.3c-0.3,0.3-0.8,0.5-1.4,0.6h-5.1c-0.5,0-0.9,0.1-1.2,0.3c-0.3,0.2-0.5,0.6-0.5,1.2
			c0,0.3,0,0.6,0.1,0.8c0.1,0.2,0.2,0.4,0.3,0.6l0.1,0.1h7.3c1,0,1.7,0.2,2,0.5c0.4,0.3,0.6,0.8,0.6,1.4c0,0.2,0,0.4,0,0.5
			c-0.1,0-0.2,0-0.3-0.1c-0.2,0-0.4,0-0.6,0h-0.1c-0.8,0-1.6,0.1-2.2,0.4c-0.7,0.3-1.2,0.6-1.7,1.1c-0.4,0.5-0.8,1-1,1.6
			C32.1,25,32,25.6,32,26.2c0,0.7,0.1,1.4,0.4,2c0.2,0.6,0.6,1.1,1.1,1.5c0.4,0.4,1,0.8,1.6,1c0.9,0.4,2.1,0.5,3.3,0.2
			c0.3-0.1,0.5-0.2,0.7-0.3c-0.2,0.6-0.6,1.1-1,1.6c-0.5,0.6-1.2,1.2-1.9,1.6c-0.7,0.4-1.6,0.8-2.5,1c-1.8,0.5-3.9,0.5-5.7,0
			c-0.9-0.2-1.7-0.6-2.5-1c-0.7-0.4-1.4-1-1.9-1.6c-0.4-0.5-0.8-1-1-1.6c0.2,0.1,0.5,0.2,0.8,0.2c1.2,0.3,2.3,0.2,3.2-0.2
			c0.6-0.2,1.2-0.6,1.6-1c0.5-0.4,0.8-0.9,1.1-1.5c0.2-0.6,0.4-1.3,0.4-2c0-0.6-0.1-1.2-0.4-1.8c-0.2-0.6-0.6-1.1-1.1-1.6
			c-0.5-0.5-1-0.8-1.7-1.1c-0.7-0.3-1.4-0.4-2.3-0.4h-0.2c-0.8,0-1.5,0.2-2.1,0.4c-0.7,0.3-1.2,0.7-1.7,1.2
			c-0.5,0.5-0.9,1.2-1.2,1.9c-0.3,0.7-0.4,1.6-0.4,2.6c0,1.6,0.3,3,0.8,4.3c0.6,1.3,1.4,2.5,2.4,3.5c1.1,1,2.3,1.7,3.8,2.3
			c1.5,0.5,3.2,0.8,5,0.8s3.6-0.3,5.1-0.8c1.5-0.5,2.8-1.3,3.9-2.3c1.1-1,1.9-2.1,2.4-3.5c0.6-1.3,0.8-2.8,0.8-4.3
			c0-1-0.1-1.9-0.4-2.6C42.3,24.1,41.9,23.5,41.5,23z M22.7,24.9c0.4-0.4,0.8-0.6,1.4-0.6c0.6,0,1.1,0.2,1.5,0.6
			c0.4,0.4,0.6,0.9,0.6,1.4s-0.2,1-0.6,1.4c-0.4,0.4-0.8,0.6-1.5,0.6c-0.6,0-1.1-0.2-1.4-0.6c-0.4-0.4-0.6-0.9-0.6-1.4
			C22.1,25.7,22.3,25.3,22.7,24.9z M38.9,27.7c-0.4,0.4-0.8,0.6-1.4,0.6c-0.6,0-1.1-0.2-1.5-0.6c-0.4-0.4-0.6-0.9-0.6-1.4
			c0-0.5,0.2-1,0.6-1.4c0.4-0.4,0.8-0.6,1.5-0.6c0.6,0,1.1,0.2,1.4,0.6c0.4,0.4,0.6,0.9,0.6,1.4C39.5,26.9,39.3,27.3,38.9,27.7z"/>
	</g>
</g>
</svg>
